<svg xmlns="http://www.w3.org/2000/svg" viewBox="0 0 600 600" width="600" height="600">
  <path d="M 412 375 L 469 447 L 471 452 L 408 530 L 455 530 L 461 526 L 520 452 L 458 375 Z M 427 70 L 481 138 L 481 142 L 418 220 L 417 223 L 470 223 L 536 143 L 536 141 L 479 71 Z M 218 177 L 147 268 L 147 341 L 162 364 L 221 431 L 423 431 L 374 370 L 246 370 L 210 329 L 351 328 L 372 269 L 212 268 L 247 229 L 379 229 L 425 171 L 232 171 Z M 187 72 L 166 88 L 61 221 L 61 388 L 163 517 L 179 528 L 374 530 L 423 468 L 201 468 L 187 457 L 111 360 L 110 255 L 204 137 L 442 134 L 391 70 Z" fill="#000000" fill-rule="evenodd"/>
</svg>